<?xml version="1.0" encoding="UTF-8" standalone="no"?>
<svg
   xmlns:dc="http://purl.org/dc/elements/1.1/"
   xmlns:cc="http://creativecommons.org/ns#"
   xmlns:rdf="http://www.w3.org/1999/02/22-rdf-syntax-ns#"
   xmlns:svg="http://www.w3.org/2000/svg"
   xmlns="http://www.w3.org/2000/svg"
   xmlns:sodipodi="http://sodipodi.sourceforge.net/DTD/sodipodi-0.dtd"
   xmlns:inkscape="http://www.inkscape.org/namespaces/inkscape"
   width="195.59758mm"
   height="91.203476mm"
   viewBox="0 0 195.59758 91.203476"
   version="1.1"
   id="svg8"
   inkscape:export-filename="/home/nekrum/proyectos/Clases_Tidyverse/media/dplyrverb_structure.png"
   inkscape:export-xdpi="96"
   inkscape:export-ydpi="96"
   inkscape:version="1.0.2 (1.0.2+r75+1)"
   sodipodi:docname="dplyrverb_structure.svg">
  <defs
     id="defs2">
    <rect
       x="71.237473"
       y="136.37968"
       width="65.69886"
       height="15.459439"
       id="rect40" />
  </defs>
  <sodipodi:namedview
     id="base"
     pagecolor="#ffffff"
     bordercolor="#666666"
     borderopacity="1.0"
     inkscape:pageopacity="0.0"
     inkscape:pageshadow="2"
     inkscape:zoom="1.4"
     inkscape:cx="352.83247"
     inkscape:cy="327.07825"
     inkscape:document-units="mm"
     inkscape:current-layer="layer1"
     inkscape:document-rotation="0"
     showgrid="false"
     showguides="true"
     inkscape:guide-bbox="true"
     fit-margin-top="2"
     fit-margin-bottom="2"
     fit-margin-left="2"
     fit-margin-right="2"
     inkscape:window-width="2546"
     inkscape:window-height="1402"
     inkscape:window-x="894"
     inkscape:window-y="18"
     inkscape:window-maximized="0">
    <sodipodi:guide
       position="136.13915,39.659428"
       orientation="0,-1"
       id="guide26" />
    <sodipodi:guide
       position="112.75307,26.696848"
       orientation="0,-1"
       id="guide64" />
  </sodipodi:namedview>
  <metadata
     id="metadata5">
    <rdf:RDF>
      <cc:Work
         rdf:about="">
        <dc:format>image/svg+xml</dc:format>
        <dc:type
           rdf:resource="http://purl.org/dc/dcmitype/StillImage" />
        <dc:title></dc:title>
      </cc:Work>
    </rdf:RDF>
  </metadata>
  <g
     inkscape:label="Capa 1"
     inkscape:groupmode="layer"
     id="layer1"
     transform="translate(-4.5782446,-54.161042)">
    <text
       xml:space="preserve"
       style="font-style:normal;font-weight:normal;font-size:10.5833px;line-height:1.25;font-family:sans-serif;fill:#000000;fill-opacity:1;stroke:none;stroke-width:0.264583"
       x="6.5531602"
       y="103.15986"
       id="text12"><tspan
         sodipodi:role="line"
         id="tspan10"
         x="6.5531602"
         y="103.15986"
         style="stroke-width:0.264583">dplyr_verb(                                      )</tspan></text>
    <text
       xml:space="preserve"
       style="font-style:normal;font-weight:normal;font-size:10.5833px;line-height:1.25;font-family:sans-serif;fill:#ff5555;fill-opacity:1;stroke:none;stroke-width:0.264583"
       x="67.366714"
       y="103.66968"
       id="text16"><tspan
         sodipodi:role="line"
         id="tspan14"
         x="67.366714"
         y="103.66968"
         style="fill:#ff5555;stroke-width:0.264583">data.frame</tspan></text>
    <text
       xml:space="preserve"
       style="font-style:normal;font-weight:normal;font-size:10.5833px;line-height:1.25;font-family:sans-serif;fill:#5f8dd3;fill-opacity:1;stroke:none;stroke-width:0.264583"
       x="133.22514"
       y="103.28698"
       id="text20"><tspan
         sodipodi:role="line"
         id="tspan18"
         x="133.22514"
         y="103.28698"
         style="fill:#5f8dd3;stroke-width:0.264583">parámetros</tspan></text>
    <text
       xml:space="preserve"
       style="font-style:normal;font-weight:normal;font-size:10.5833px;line-height:1.25;font-family:sans-serif;fill:#000000;fill-opacity:1;stroke:none;stroke-width:0.264583"
       x="126.65326"
       y="104.3179"
       id="text24"><tspan
         sodipodi:role="line"
         id="tspan22"
         x="126.65326"
         y="104.3179"
         style="stroke-width:0.264583">,</tspan></text>
    <text
       xml:space="preserve"
       style="font-style:normal;font-weight:normal;font-size:10.5833px;line-height:0;font-family:sans-serif;fill:#000000;fill-opacity:1;stroke:none;stroke-width:0.264583"
       x="35.093311"
       y="125.13553"
       id="text30"><tspan
         sodipodi:role="line"
         id="tspan28"
         x="35.093311"
         y="125.13553"
         style="font-style:normal;font-variant:normal;font-weight:normal;font-stretch:normal;font-size:8.46667px;line-height:1.05;font-family:sans-serif;-inkscape-font-specification:sans-serif;text-align:center;text-anchor:middle;fill:#999999;stroke-width:0.264583">El nombre del</tspan><tspan
         sodipodi:role="line"
         x="35.093311"
         y="134.02553"
         style="font-style:normal;font-variant:normal;font-weight:normal;font-stretch:normal;font-size:8.46667px;line-height:1.05;font-family:sans-serif;-inkscape-font-specification:sans-serif;text-align:center;text-anchor:middle;fill:#999999;stroke-width:0.264583"
         id="tspan32">verbo dplyr</tspan></text>
    <text
       xml:space="preserve"
       id="text38"
       style="font-style:normal;font-weight:normal;font-size:10.5833px;line-height:1.25;font-family:sans-serif;white-space:pre;shape-inside:url(#rect40);fill:#000000;fill-opacity:1;stroke:none;" />
    <text
       xml:space="preserve"
       style="font-style:normal;font-weight:normal;font-size:10.5833px;line-height:0;font-family:sans-serif;fill:#ffaaaa;fill-opacity:1;stroke:none;stroke-width:0.264583"
       x="95.410492"
       y="62.593727"
       id="text50"><tspan
         sodipodi:role="line"
         id="tspan48"
         x="95.410492"
         y="62.593727"
         style="font-size:8.46667px;line-height:0.95;text-align:center;text-anchor:middle;fill:#ffaaaa;stroke-width:0.264583">El data.frame</tspan><tspan
         sodipodi:role="line"
         x="95.410492"
         y="70.637062"
         style="font-size:8.46667px;line-height:0.95;text-align:center;text-anchor:middle;fill:#ffaaaa;stroke-width:0.264583"
         id="tspan52">que estamos</tspan><tspan
         sodipodi:role="line"
         x="95.410492"
         y="78.680397"
         style="font-size:8.46667px;line-height:0.95;text-align:center;text-anchor:middle;fill:#ffaaaa;stroke-width:0.264583"
         id="tspan54">procesando</tspan></text>
    <text
       xml:space="preserve"
       style="font-style:normal;font-weight:normal;font-size:10.5833px;line-height:0;font-family:sans-serif;fill:#afc6e9;fill-opacity:1;stroke:none;stroke-width:0.264583"
       x="165.18352"
       y="125.51671"
       id="text58"><tspan
         sodipodi:role="line"
         id="tspan56"
         x="165.18352"
         y="125.51671"
         style="font-size:8.46667px;line-height:0.95;text-align:center;text-anchor:middle;fill:#afc6e9;stroke-width:0.264583">Parámetros que</tspan><tspan
         sodipodi:role="line"
         x="165.18352"
         y="133.56004"
         style="font-size:8.46667px;line-height:0.95;text-align:center;text-anchor:middle;fill:#afc6e9;stroke-width:0.264583"
         id="tspan60">usa el verbo en</tspan><tspan
         sodipodi:role="line"
         x="165.18352"
         y="141.60338"
         style="font-size:8.46667px;line-height:0.95;text-align:center;text-anchor:middle;fill:#afc6e9;stroke-width:0.264583"
         id="tspan62">particular.</tspan></text>
    <g
       aria-label="}"
       id="text68"
       style="font-style:normal;font-weight:normal;font-size:10.5833px;line-height:1.25;font-family:sans-serif;fill:#ff8080;fill-opacity:1;stroke:none;stroke-width:0.264583"
       transform="matrix(0.02291795,-2.476296,4.7144977,0.01203768,-185.17908,88.290191)">
      <path
         d="m -1.8893527,64.267593 c 0.5597843,0.0079 1.32027751,-0.03358 1.56269531,-0.26665 0.75123775,-1.285768 -0.18732593,-2.90408 0.54570312,-4.098975 0.70508178,-0.51946 0.88219697,-0.598143 0,-1.203027 C -0.55273212,56.85736 0.65567938,55.758837 -0.32665739,54.599967 -0.78818531,54.305342 -1.2575743,54.327115 -1.8893527,54.327115 l 0.00995,-0.515443 c 1.06645507,0.134729 1.70340679,0.31928 2.10222254,0.598793 0.84303736,0.59085 -0.31374071,2.980222 0.76622004,4.198154 0.46010802,0.336813 0.89778312,0.508119 1.56535482,0.508119 l -0.038446,0.403183 c -0.6735195,-0.01108 -1.2631946,0.193544 -1.52799935,0.464122 -0.93472708,1.347213 0.0946926,3.738355 -0.79037266,4.379515 -0.37802716,0.273851 -1.18321007,0.362478 -2.11561629,0.491175 z"
         style="font-size:12.7px;fill:#ff8080;stroke-width:0.264583"
         id="path70"
         sodipodi:nodetypes="cccccccsccccscc" />
    </g>
    <path
       d="m 139.0154,107.70171 c -0.0501,1.3861 0.12806,3.26981 1.22131,3.87291 6.04453,1.87576 13.69557,-0.42892 19.3121,1.40066 2.43284,1.75225 2.79973,2.19179 5.67167,0.0145 8.69982,-1.88898 13.85111,1.11663 19.33711,-1.30198 1.39959,-1.13933 1.30769,-2.30194 1.32217,-3.86641 l 2.42983,0.0308 c -0.65962,2.63924 -1.54428,4.2143 -2.87119,5.19852 -2.80488,2.0805 -14.04306,-0.81279 -19.80974,1.84685 -1.59845,1.13531 -2.4161,2.21706 -2.4314,3.87017 l -1.89992,-0.10006 c 0.0677,-1.6677 -0.88352,-3.13037 -2.15309,-3.78937 -6.33002,-2.33087 -17.62664,0.18949 -20.6291,-2.00991 -1.28241,-0.93941 -1.68179,-2.93434 -2.26716,-5.24481 z"
       style="font-style:normal;font-weight:normal;font-size:12.7px;line-height:1.25;font-family:sans-serif;fill:#afc6e9;fill-opacity:1;stroke:none;stroke-width:0.904037"
       id="path70-0"
       sodipodi:nodetypes="cccccccsccccscc" />
    <g
       aria-label="}"
       id="text68-3"
       style="font-style:normal;font-weight:normal;font-size:10.5833px;line-height:1.25;font-family:sans-serif;fill:#999999;fill-opacity:1;stroke:none;stroke-width:0.264583"
       transform="matrix(-0.01998327,2.4763214,-4.7145087,-0.00645051,314.21458,111.85663)">
      <path
         d="m -1.8893527,64.267593 c 0.5597843,0.0079 1.32027751,-0.03358 1.56269531,-0.26665 0.75123775,-1.285768 -0.18732593,-2.90408 0.54570312,-4.098975 0.70508178,-0.51946 0.88219697,-0.598143 0,-1.203027 C -0.55273212,56.85736 0.65567938,55.758837 -0.32665739,54.599967 -0.78818531,54.305342 -1.2575743,54.327115 -1.8893527,54.327115 l 0.00995,-0.515443 c 1.06645507,0.134729 1.70340679,0.31928 2.10222254,0.598793 0.84303736,0.59085 -0.31374071,2.980222 0.76622004,4.198154 0.46010802,0.336813 0.89778312,0.508119 1.56535482,0.508119 l -0.038446,0.403183 c -0.6735195,-0.01108 -1.2631946,0.193544 -1.52799935,0.464122 -0.93472708,1.347213 0.0946926,3.738355 -0.79037266,4.379515 -0.37802716,0.273851 -1.18321007,0.362478 -2.11561629,0.491175 z"
         style="font-size:12.7px;fill:#999999;fill-opacity:1;stroke-width:0.264583"
         id="path70-6"
         sodipodi:nodetypes="cccccccsccccscc" />
    </g>
  </g>
</svg>
